<svg width="1200" height="1200" viewBox="0 0 1200 1200" fill="none" xmlns="http://www.w3.org/2000/svg">
<rect width="1200" height="1200" fill="#F9F9F9"/>
<path d="M973.534 599.428C973.534 599.428 973.534 598.599 973.534 597.397C973.534 595.68 973.534 592.932 973.534 589.327C973.534 576.793 973.219 564.182 972.59 551.495C972.59 549.807 972.447 548.09 972.39 546.373C970.76 505.508 966.927 450.535 958.089 416.624C953.922 400.615 945.626 385.982 934.031 374.19C922.435 362.398 907.947 353.86 892.016 349.431C885.667 347.794 879.231 346.514 872.738 345.596C868.562 344.91 851.572 342.735 847.253 342.448C758.814 333.549 600.069 333.549 600.069 333.549C599.097 333.549 441.296 333.549 353.114 342.42C348.709 342.763 331.462 344.91 327.372 345.625C320.927 346.533 314.539 347.804 308.237 349.431C292.259 353.821 277.717 362.341 266.074 374.136C254.431 385.931 246.096 400.584 241.907 416.624C233.04 450.248 229.208 504.621 227.606 545.4C227.606 547.26 227.606 549.091 227.377 550.894C226.805 563.695 226.49 576.392 226.433 588.983C226.433 592.761 226.433 595.651 226.433 597.568V599.715V601.775C226.433 603.521 226.433 606.468 226.433 610.36C226.433 623.009 226.748 635.734 227.377 648.535C227.377 650.395 227.52 652.255 227.606 654.259C229.265 694.952 233.098 749.152 241.907 782.72C246.071 798.725 254.363 813.356 265.953 825.147C277.543 836.939 292.026 845.479 307.951 849.912C313.916 851.459 319.959 852.682 326.056 853.575C330.604 854.377 351.227 856.866 356.976 857.324C445.844 865.909 598.897 865.909 599.869 865.909C599.869 865.909 753.894 865.909 842.992 857.324C848.712 856.895 869.02 854.463 873.482 853.633C879.637 852.735 885.738 851.503 891.759 849.941C907.69 845.512 922.178 836.974 933.773 825.182C945.369 813.39 953.665 798.757 957.831 782.749C966.755 748.923 970.559 694.036 972.132 653.257C972.132 651.511 972.276 649.766 972.333 648.049C972.924 635.305 973.248 622.646 973.305 610.074C973.305 606.411 973.305 603.578 973.305 601.89C973.305 600.831 973.305 600.173 973.305 600.001V599.772L973.534 599.428Z" fill="white"/>
<path d="M753.522 560.653C743.304 560.509 733.168 562.499 723.762 566.495C714.355 570.491 705.885 576.406 698.891 583.861C691.59 591.124 685.822 599.781 681.931 609.318C678.039 618.855 676.103 629.077 676.238 639.378C675.968 649.806 677.862 660.177 681.801 669.836C685.739 679.495 691.636 688.232 699.12 695.495C714.375 710.453 733.52 717.931 756.554 717.931C766.246 718.051 775.852 716.111 784.737 712.238C793.622 708.365 801.584 702.649 808.096 695.467C822.155 680.649 829.776 660.862 829.291 640.436C829.291 617.657 822.064 598.665 807.61 583.46C800.708 576.062 792.322 570.206 783.001 566.276C773.68 562.346 763.635 560.429 753.522 560.653Z" fill="#012D6F"/>
<path d="M1003.8 599.428V597.225C1003.8 595.393 1003.8 592.389 1003.8 588.64C1003.8 575.104 1003.42 561.454 1002.77 547.746C1002.77 545.915 1002.77 544.083 1002.57 542.195C1000.79 498.039 996.673 438.601 987.006 401.972C982.521 384.626 973.552 368.766 961 355.987C948.449 343.207 932.756 333.959 915.499 329.17C908.631 327.404 901.669 326.018 894.648 325.021C890.129 324.277 871.766 321.987 867.104 321.615C771.514 312 599.898 312 599.898 312C598.84 312 428.282 312 332.921 321.587C328.173 321.959 309.524 324.277 305.005 325.049C298.029 326.028 291.115 327.404 284.296 329.17C267.061 333.944 251.382 343.167 238.832 355.914C226.281 368.661 217.301 384.485 212.79 401.8C203.294 438.143 199.146 496.923 197.373 540.935C197.373 542.939 197.201 544.913 197.144 546.859C196.477 560.691 196.095 574.427 196 588.068C196 592.131 196 595.308 196 597.196V599.514V601.718C196 603.635 196 606.812 196 610.932C196 624.592 196.353 638.347 197.058 652.198C197.058 654.201 197.058 656.233 197.287 658.322C199.089 702.335 203.236 760.914 212.79 797.2C217.298 814.516 226.278 830.341 238.828 843.089C251.379 855.837 267.059 865.059 284.296 869.83C290.752 871.504 297.292 872.832 303.889 873.808C308.78 874.638 331.062 877.356 337.268 877.843C433.373 886.971 598.811 887 599.869 887C599.869 887 766.394 887 862.727 877.814C868.848 877.356 890.901 874.666 895.706 873.836C902.36 872.851 908.958 871.514 915.471 869.83C932.708 865.059 948.388 855.837 960.939 843.089C973.489 830.341 982.469 814.516 986.977 797.2C996.616 760.628 1000.76 701.333 1002.54 657.206C1002.54 655.317 1002.68 653.429 1002.74 651.483C1003.4 637.718 1003.71 624.01 1003.77 610.417C1003.77 606.44 1003.77 603.406 1003.77 601.546V599.285L1003.8 599.428ZM539.746 775.909L509.771 698.643H379.057L350.454 775.909H278.948L416.955 419.571H476.592L614.228 775.909H539.746ZM833.467 775.909L832.037 750.726C820.409 760.056 807.312 767.387 793.28 772.418C779.088 777.278 764.175 779.697 749.175 779.572C732.995 779.67 716.92 776.958 701.666 771.559C686.988 766.363 673.408 758.473 661.622 748.294C645.758 734.779 633.063 717.935 624.439 698.958C615.801 679.966 611.381 659.327 611.482 638.462C611.49 618.939 615.563 599.632 623.443 581.771C631.322 563.91 642.835 547.888 657.246 534.726C669.261 523.315 683.428 514.413 698.92 508.541C714.95 502.489 731.957 499.443 749.089 499.555C764.527 499.309 779.904 501.561 794.625 506.223C808.237 510.889 820.886 517.997 831.951 527.199V419.571H893.018L894.448 775.909H833.467Z" fill="#012D6F"/>
<path d="M402.683 633.139H487.003L445.329 519.444L402.683 633.139Z" fill="#012D6F"/>
</svg>
