<svg width="20" height="16" xmlns="http://www.w3.org/2000/svg" viewBox="0 0 421.65 300"><path class="cls-1" d="M291,129.72a38.37,38.37,0,0,0-28.52,12.14,40.07,40.07,0,0,0-11.83,29q0,17.58,11.89,29.28t30,11.7a35.69,35.69,0,0,0,27-11.76q11.06-11.77,11.06-28.71,0-17.83-11.32-29.72T291,129.72Z"/><path class="cls-1" d="M421.65,149.95c0-.08,0-.47,0-1.14,0-1,0-2.53,0-4.56q0-10.59-.53-21.33c0-1-.07-1.92-.11-2.9-.92-23-3.08-54-8.12-73.17A53.25,53.25,0,0,0,375.56,9a101.47,101.47,0,0,0-10.88-2.17C362.32,6.4,352.73,5.21,350.29,5c-49.9-5-139.47-5-139.47-5h0c-.56,0-89.59,0-139.36,5C69,5.2,59.24,6.4,56.88,6.8A101,101,0,0,0,46.09,9,53.25,53.25,0,0,0,8.81,46.85c-5,19-7.16,49.63-8.1,72.61,0,1.05-.08,2.08-.12,3.1Q.09,133.36,0,144c0,2.12,0,3.75,0,4.75,0,.77,0,1.22,0,1.22H0s0,.44,0,1.16c0,1,0,2.65,0,4.8q0,10.69.55,21.52c0,1,.08,2.11.12,3.19.94,23,3.1,53.53,8.09,72.46A53.25,53.25,0,0,0,46.09,291a98.32,98.32,0,0,0,10.22,2.06c2.56.44,14.19,1.86,17.44,2.11C123.9,300,210.26,300,210.81,300h0s86.91,0,137.21-4.79c3.19-.24,14.7-1.65,17.21-2.08A98.77,98.77,0,0,0,375.56,291a53.25,53.25,0,0,0,37.28-37.89c5-19.09,7.19-50,8.11-73,0-1,.08-2,.11-2.93q.5-10.78.54-21.42c0-2.07,0-3.66,0-4.62,0-.6,0-1,0-1.06s0,0,0-.07S421.65,150,421.65,149.95ZM179.43,242l-15.65-40.34H95.48L80.55,242H43.24l72.1-185.91h31.12L218.31,242Zm153.31,0L332,228.88a70.09,70.09,0,0,1-20.24,11.32,69,69,0,0,1-23,3.73,72.91,72.91,0,0,1-24.79-4.17,65.47,65.47,0,0,1-20.86-12.14,74.09,74.09,0,0,1-19.42-25.74,75.28,75.28,0,0,1-6.77-31.56,73.4,73.4,0,0,1,23.91-54.13,65,65,0,0,1,21.75-13.66,72.86,72.86,0,0,1,26.18-4.68,74.72,74.72,0,0,1,23.78,3.48A61.53,61.53,0,0,1,332,112.27V56.12h31.87L364.61,242Z"/><polygon class="cls-1" points="107.88 167.54 151.89 167.54 130.14 108.22 107.88 167.54"/></svg>