<svg xmlns="http://www.w3.org/2000/svg" viewBox="0 0 721.71 166"><defs><style>.cls-1{fill:#012d6f;}.cls-2{fill:#fff;}</style></defs><g id="Layer_2" data-name="Layer 2"><g id="Layer_1-2" data-name="Layer 1"><path class="cls-1" d="M245.94,108.52H264a12.89,12.89,0,0,0,4.71,10.24,17.52,17.52,0,0,0,11.81,4,18.8,18.8,0,0,0,11-3,9.12,9.12,0,0,0,4.32-7.74,9.22,9.22,0,0,0-3.06-7q-3.06-2.85-9.86-4.85-2.34-.7-6.61-1.85-11.37-3.13-14.48-5a24.24,24.24,0,0,1-8.45-7.59,17.77,17.77,0,0,1-2.73-9.82q0-9.55,9.09-16.26T282,52.94q13.71,0,21.77,5.89t8.84,16.51H294.14a9.18,9.18,0,0,0-3.89-6.77q-3.4-2.43-9.13-2.43a13.89,13.89,0,0,0-8.6,2.6,7.83,7.83,0,0,0-3.45,6.46q0,6.57,15.55,10.77l6.9,1.93Q303.76,91.54,309,97t5.2,14.49q0,10.56-9.72,17.55T280,136q-14.86,0-24-7.35T245.94,108.52Z"/><path class="cls-1" d="M331.37,99.89a26.61,26.61,0,0,0,8.88,16,25.1,25.1,0,0,0,16.88,6.1A24.51,24.51,0,0,0,379,109.09H395q-5.43,13.06-15.17,20A38.11,38.11,0,0,1,357.13,136a40.12,40.12,0,0,1-15.91-3.07,39.06,39.06,0,0,1-13.06-9.2,42.47,42.47,0,0,1-8.6-13.45,41.36,41.36,0,0,1-3.1-15.66,42.07,42.07,0,0,1,2.82-15.48A41.34,41.34,0,0,1,327.59,66a38.15,38.15,0,0,1,29.25-12.92,39.71,39.71,0,0,1,19.23,4.82,40.89,40.89,0,0,1,14.67,13.45,40.14,40.14,0,0,1,5.06,11.74,58.47,58.47,0,0,1,1.65,14.59v2.21ZM382,87.19q-2.64-9.7-9.13-15a23.82,23.82,0,0,0-15.56-5.32,25,25,0,0,0-16.09,5.46,27.82,27.82,0,0,0-9.38,14.88Z"/><path class="cls-1" d="M494.32,133.92H483.69L453.87,55.44h15.2l20.62,57.29,21.18-57.29h14.92Z"/><path class="cls-1" d="M544.1,46.23h-14V31.05h14Zm-14,87.69V55.44h14v78.48Z"/><path class="cls-1" d="M628.73,107.17q-4.92,14.19-14.63,21.51T590.48,136a40.28,40.28,0,0,1-15.9-3,38.76,38.76,0,0,1-12.92-9.1,42.35,42.35,0,0,1-8.6-13.45,42,42,0,0,1,21.66-54,39.58,39.58,0,0,1,16.19-3.35,37.87,37.87,0,0,1,23.41,7.46q9.91,7.46,14.41,20.94H613.25A24.6,24.6,0,0,0,589.7,67.14a23.33,23.33,0,0,0-17.8,7.92q-7.32,7.92-7.31,19.55T572,114.23a25.43,25.43,0,0,0,31.89,4,25.91,25.91,0,0,0,9.35-11Z"/><path class="cls-1" d="M646.59,99.89a26.62,26.62,0,0,0,8.89,16,25.06,25.06,0,0,0,16.87,6.1,24.51,24.51,0,0,0,21.91-12.85h15.91q-5.43,13.06-15.16,20A38.16,38.16,0,0,1,672.35,136a40.12,40.12,0,0,1-15.91-3.07,39,39,0,0,1-13.05-9.2,42.29,42.29,0,0,1-8.6-13.45,41.37,41.37,0,0,1-3.11-15.66,42.07,42.07,0,0,1,2.82-15.48A41.34,41.34,0,0,1,642.81,66a38.15,38.15,0,0,1,29.26-12.92A39.77,39.77,0,0,1,691.3,57.9,40.94,40.94,0,0,1,706,71.35,40.14,40.14,0,0,1,711,83.09a58.5,58.5,0,0,1,1.64,14.59v2.21Zm50.59-12.7q-2.64-9.7-9.13-15a23.79,23.79,0,0,0-15.55-5.32,24.94,24.94,0,0,0-16.09,5.46A27.77,27.77,0,0,0,647,87.19Z"/><path class="cls-1" d="M438.93,53.94a36.5,36.5,0,0,0-6.78.31,21,21,0,0,0-8.62,2.51,23.8,23.8,0,0,0-8,7.74V55.44H402.24v78.48h14.13V90.26a42.45,42.45,0,0,1,.51-6.91h0s-.22-20.45,32.48-14.41V56.35A32.69,32.69,0,0,0,438.93,53.94Z"/><path class="cls-1" d="M710.6,41.54h-3.29v9h-1.22v-9h-3.26V40.39h7.77Z"/><path class="cls-1" d="M721.71,40.39V50.56H720.5V41.94l-3.44,5.2h-.12l-3.44-5.2v8.62h-1.2V40.39h1.48L717,45.24l3.23-4.85Z"/><path class="cls-2" d="M224.57,83s0-.24,0-.58,0-1.29,0-2.33q0-5.43-.27-10.92c0-.49,0-1-.06-1.49-.47-11.79-1.57-27.66-4.15-37.45A27.26,27.26,0,0,0,201,10.81,49.37,49.37,0,0,0,195.4,9.7c-1.2-.2-6.11-.81-7.36-.91-25.54-2.57-71.38-2.57-71.38-2.57h0c-.29,0-45.86,0-71.33,2.56-1.27.1-6.25.72-7.46.92a50.28,50.28,0,0,0-5.52,1.11A27.23,27.23,0,0,0,13.26,30.2C10.7,39.91,9.59,55.6,9.11,67.36q0,.81-.06,1.59c-.17,3.69-.26,7.36-.28,11,0,1.09,0,1.92,0,2.44V83h0v.59c0,.51,0,1.35,0,2.46,0,3.64.11,7.32.28,11,0,.54,0,1.08.06,1.64.48,11.75,1.59,27.4,4.15,37.09a27.23,27.23,0,0,0,19.08,19.39,48.17,48.17,0,0,0,5.23,1.06c1.31.23,7.26.95,8.92,1.08,25.67,2.44,69.88,2.45,70.16,2.45h0s44.48,0,70.23-2.46c1.63-.12,7.52-.84,8.81-1.06a51.13,51.13,0,0,0,5.28-1.07,27.26,27.26,0,0,0,19.08-19.39c2.57-9.77,3.68-25.6,4.15-37.38l.06-1.51c.17-3.67.26-7.33.27-11,0-1.06,0-1.87,0-2.37,0-.3,0-.49,0-.54V83Z"/><path class="cls-1" d="M161,71.78a21.22,21.22,0,0,0-15.78,6.72,22.15,22.15,0,0,0-6.55,16,21.83,21.83,0,0,0,6.58,16.2,22.7,22.7,0,0,0,16.59,6.47,19.74,19.74,0,0,0,14.94-6.51,22.32,22.32,0,0,0,6.12-15.88,23,23,0,0,0-6.26-16.45A20.7,20.7,0,0,0,161,71.78Z"/><path class="cls-1" d="M233.31,83v-.63c0-.53,0-1.4,0-2.52q0-5.86-.3-11.81c0-.52,0-1.06-.06-1.6-.51-12.75-1.7-29.9-4.49-40.49A29.46,29.46,0,0,0,207.81,5a54.93,54.93,0,0,0-6-1.2c-1.31-.22-6.61-.88-8-1C166.22,0,116.66,0,116.66,0h0c-.31,0-49.58,0-77.11,2.77-1.38.11-6.76.77-8.07,1a56.7,56.7,0,0,0-6,1.2,29.43,29.43,0,0,0-20.62,21C2.11,36.42.91,53.38.39,66.1q0,.87-.06,1.71Q0,73.79,0,79.7c0,1.17,0,2.07,0,2.63V83H0v.64c0,.55,0,1.46,0,2.66q0,5.91.3,11.9c0,.58,0,1.17.07,1.77.52,12.71,1.71,29.62,4.48,40.1A29.43,29.43,0,0,0,25.5,161a53.62,53.62,0,0,0,5.66,1.15c1.41.24,7.85,1,9.64,1.16C68.56,166,116.34,166,116.65,166h0s48.09,0,75.92-2.65c1.76-.14,8.13-.91,9.52-1.15a56.72,56.72,0,0,0,5.71-1.16,29.46,29.46,0,0,0,20.63-21c2.78-10.57,4-27.68,4.49-40.42q0-.82.06-1.62c.18-4,.28-7.93.3-11.85,0-1.15,0-2,0-2.56V83Zm-134,50.95L90.62,111.6H52.83l-8.26,22.32H23.93L63.82,31.05H81L120.8,133.92Zm84.83,0-.41-7.27a38.76,38.76,0,0,1-11.2,6.26A38.06,38.06,0,0,1,159.77,135a40.53,40.53,0,0,1-13.72-2.31A36.17,36.17,0,0,1,134.51,126a41.12,41.12,0,0,1-10.75-14.24A41.79,41.79,0,0,1,120,94.25a40.61,40.61,0,0,1,13.22-30,35.89,35.89,0,0,1,12-7.55,40.23,40.23,0,0,1,14.49-2.59,41.37,41.37,0,0,1,13.15,1.92,34,34,0,0,1,10.78,6V31.05h17.64l.41,102.87Z"/><polygon class="cls-1" points="59.69 92.7 84.05 92.7 72.01 59.88 59.69 92.7"/></g></g></svg>
